<svg xmlns="http://www.w3.org/2000/svg" id="a" viewBox="0 0 500 250"><defs><style>.b{fill:#4c4b4b;}</style></defs><path class="b" d="M75.52,21.63V186.01c.48,6.96,5.09,12.79,11.25,14.51,7.5,2.09,16.06-2.27,19.1-10.45-2.73,6.24-12.37,26.14-33.44,34.56-8.31,3.31-15.47,3.75-17.58,3.75-31.82,0-48.85-18.24-48.85-55.33V21.63H75.52Z"></path><path class="b" d="M322.68,21.63V186.01c.48,6.96,5.09,12.79,11.25,14.51,7.5,2.09,16.06-2.27,19.1-10.45-2.73,6.24-12.37,26.14-33.44,34.56-8.31,3.31-15.47,3.75-17.58,3.75-31.82,0-48.85-18.24-48.85-55.33V21.63h69.52Z"></path><path class="b" d="M168.96,69.26c46.62,0,77.63,31.82,77.63,79.45s-31.01,79.66-77.63,79.66-77.43-31.82-77.43-79.66,31.01-79.45,77.43-79.45Zm-7.9,25.54v107.83c0,14.8,3.65,19.05,8.11,19.05s8.11-4.26,8.11-19.05V94.8c0-14.8-3.65-19.05-8.11-19.05s-8.11,4.26-8.11,19.05Z"></path><path class="b" d="M416.37,69.16c46.62,0,77.63,31.82,77.63,79.45s-31.01,79.66-77.63,79.66-77.43-31.82-77.43-79.66,31.01-79.45,77.43-79.45Zm-7.9,25.54v107.83c0,14.8,3.65,19.05,8.11,19.05s8.11-4.26,8.11-19.05V94.7c0-14.8-3.65-19.05-8.11-19.05s-8.11,4.26-8.11,19.05Z"></path></svg>